<svg width="160" height="50" viewBox="0 0 160 50" fill="none" xmlns="http://www.w3.org/2000/svg">
<path d="M56.7616 18.3561C56.1408 18.9623 55.4336 19.4186 54.6432 19.7217C53.8496 20.0248 53.0464 20.178 52.2336 20.178C51.4208 20.178 50.6208 20.028 49.84 19.7217C49.0592 19.4186 48.3584 18.9655 47.7376 18.3561C47.1392 17.7498 46.6784 17.0748 46.3552 16.3342C46.0352 15.5936 45.872 14.803 45.872 13.9655C45.872 13.128 46.032 12.3342 46.3552 11.5811C46.6752 10.828 47.136 10.1498 47.7376 9.54358C48.3584 8.93733 49.0592 8.48108 49.84 8.17796C50.6208 7.87483 51.4176 7.72171 52.2336 7.72171C53.0464 7.72171 53.8496 7.87483 54.6432 8.17796C55.2352 8.40608 55.7792 8.71858 56.2784 9.11233C56.2848 9.01858 56.3232 8.92483 56.4128 8.83733C57.2992 7.99046 58.0192 6.98108 58.9792 6.20608C59.0816 6.12171 59.1872 6.04046 59.2928 5.95921C59.2896 5.95608 59.2832 5.95608 59.28 5.95296C58.9792 5.75921 58.8736 5.41546 58.9408 5.10921C58.6304 4.99983 58.2944 4.94983 57.9712 4.88421C57.5072 4.79046 56.8224 4.66233 56.5984 4.20608C56.544 4.09671 56.528 3.97483 56.5536 3.86546C56.3904 3.79358 56.224 3.72796 56.0544 3.67796C55.0976 3.40921 54.112 3.31233 53.1232 3.24983C51.5328 3.14671 49.856 2.97796 48.304 3.43108C47.9136 3.54671 47.536 3.70296 47.1904 3.91858C46.8704 4.11858 46.6304 4.40921 46.3584 4.66546C45.7312 5.26546 44.96 5.75296 44.2624 6.26858C43.5904 6.76546 43.0368 7.27483 42.6304 8.00296C42.2656 8.64983 41.8944 9.35608 41.6704 10.0623C41.4144 10.8655 41.376 11.7092 41.3696 12.5436C41.3664 13.0155 41.3312 13.4655 41.216 13.9248C41.12 14.3123 40.9888 14.6936 40.9248 15.0905C40.9728 15.1405 41.0144 15.203 41.0368 15.2842C41.3184 16.3123 41.3056 17.378 41.4432 18.4217C41.9968 19.353 42.624 20.2436 43.2192 21.1498C43.5648 21.678 43.984 22.1842 44.448 22.6373C45.3376 23.403 46.304 24.0155 47.3504 24.4686C48.1248 24.7092 48.9024 24.9436 49.6992 25.1217C50.6304 25.328 51.6224 25.4811 52.5728 25.3311C52.7392 25.3061 52.9088 25.3436 53.0208 25.4498C54.2816 25.3717 55.5104 25.1061 56.6976 24.6467C58.1312 24.0936 59.4272 23.2498 60.5856 22.1217L56.7616 18.3561Z" fill="#0473AA"/>
<path opacity="0.25" d="M48.9759 24.6C49.9743 24.8875 50.9887 25.15 52.0223 25.2781C52.4831 25.3344 52.9535 25.3594 53.4175 25.3812C53.6735 25.3937 53.9263 25.3969 54.1791 25.3719C53.5295 25.2937 52.1151 25.1531 51.1359 24.7906C47.3055 23.3812 46.2495 20.7469 45.5423 17.7687C44.9247 15.1562 45.4239 12.9062 45.8591 12.1062C46.3135 11.2656 47.0815 10.3062 47.0815 10.3062C47.1007 10.2812 47.1167 10.2594 47.1263 10.2469C47.1295 10.2406 47.1359 10.2344 47.1391 10.2281C47.1519 10.2156 47.1711 10.1875 47.1999 10.1531C47.2095 10.1437 47.2127 10.1375 47.2159 10.1344C47.2415 10.1 47.2735 10.0562 47.3215 10.0031C47.4047 9.90623 47.4463 9.85623 47.4559 9.84373C47.4911 9.8031 47.6031 9.67498 47.7119 9.56248C47.7119 9.56248 47.9839 9.28123 48.3263 9.02498C48.3775 8.98748 48.4959 8.9031 48.6367 8.8031C48.6623 8.78435 48.6879 8.76873 48.7039 8.75623C48.9631 8.58435 49.2159 8.4531 49.3087 8.40623C49.3087 8.40623 49.4335 8.34373 49.6063 8.2656C49.6447 8.24685 49.6767 8.23435 49.7119 8.22185C49.7535 8.20623 49.7567 8.20623 49.8271 8.1781C49.9039 8.14998 49.9103 8.14685 49.9807 8.11873C49.9935 8.11248 50.0255 8.1031 50.0639 8.0906C50.0991 8.0781 50.1279 8.06873 50.1567 8.05935C50.2495 8.0281 50.2975 8.01248 50.3231 8.0031C50.3231 8.0031 50.4031 7.9781 50.5119 7.94998C50.5311 7.94373 50.5535 7.9406 50.5727 7.93435C50.5983 7.9281 50.6047 7.92498 50.6143 7.92185C50.6399 7.9156 50.6591 7.90623 50.6719 7.9031C50.9055 7.7281 51.1583 7.58748 51.3951 7.41873C51.4367 7.38435 51.4719 7.34998 51.5071 7.31248C51.5199 7.2906 51.5359 7.27185 51.5487 7.24685C51.6191 7.09998 51.7823 7.00623 51.9327 6.95935C52.0991 6.90623 52.2783 6.94685 52.4287 7.02185C52.5567 7.08748 52.6655 7.23123 52.7103 7.3656C52.8255 7.3156 52.9439 7.2656 53.0591 7.21248C53.3407 7.08748 53.6191 6.95935 53.9039 6.8406C54.1151 6.7531 54.3263 6.66873 54.5407 6.58748C54.5599 6.20935 54.5919 5.83123 54.6303 5.45623C54.5663 5.1281 54.5247 4.7906 54.5055 4.44373C54.2815 4.41248 54.0671 4.31873 53.8847 4.14373C53.6223 3.8906 53.5391 3.53435 53.5679 3.1656C53.4431 3.14373 53.3247 3.12498 53.2287 3.1156C52.5823 3.04685 51.9263 3.02498 51.2767 3.09998C49.9967 3.24373 48.7615 3.6781 47.5295 4.02498C47.3087 4.08748 47.1231 4.03748 46.9887 3.93123C46.0287 4.4406 45.1391 5.08748 44.3263 5.87498C43.2127 6.9531 42.3615 8.18123 41.7727 9.55935C41.5967 9.97498 40.9151 11.6469 40.8895 13.9562C40.8799 14.7375 40.8799 16.3781 41.6383 18.3C42.7999 21.2375 44.9279 22.8156 45.6063 23.3031C45.7503 23.4062 46.9407 24.2531 48.4575 24.8219C48.5439 24.6531 48.7295 24.5312 48.9759 24.6Z" fill="#252A2B"/>
<path d="M41.1968 18.2031C40.4352 16.2781 40.4384 14.6406 40.448 13.8593C40.4736 11.55 41.1552 9.87495 41.3312 9.46245C41.92 8.08433 42.7712 6.8562 43.8848 5.77808C45.04 4.65933 46.3456 3.8187 47.8048 3.25933C49.2608 2.69995 50.7424 2.4187 52.2528 2.4187C53.7632 2.4187 55.2384 2.69683 56.6848 3.25933C58.1312 3.8187 59.4304 4.65933 60.5888 5.77808C59.3152 7.01245 58.0416 8.2437 56.768 9.47808C56.224 9.04683 54.2752 7.61245 51.6064 7.77808C48.6848 7.95933 46.432 9.91558 45.4176 12.0125C44.304 14.3093 44.816 16.4718 45.1008 17.675C45.7376 20.3656 47.6448 23.575 50.6944 24.6968C52.0064 25.1781 54.0992 25.2687 54.0896 25.3437C54.0896 25.35 53.9616 25.3656 53.7056 25.3937C53.6192 25.4031 53.4912 25.4187 53.3408 25.4312C53.2736 25.4375 53.216 25.4406 53.1968 25.4437C53.1456 25.4468 53.0816 25.4531 53.0048 25.4562C52.9504 25.4593 52.8736 25.4625 52.7808 25.4687C52.6976 25.4718 52.5792 25.475 52.4384 25.4781C52.3136 25.4812 52.2144 25.4812 52.16 25.4781C52.0896 25.4781 51.9616 25.475 51.8016 25.4718C51.7568 25.4687 51.4912 25.4593 51.1968 25.4343C50.6144 25.3843 50.0992 25.2906 50.0096 25.275C49.9264 25.2593 49.1616 25.1156 48.384 24.8593C46.6944 24.3 45.3248 23.325 45.168 23.2125C44.4864 22.7187 42.3552 21.1406 41.1968 18.2031Z" fill="#0593C4"/>
<path d="M75.68 25.5063L74.7488 22.7156H67.328L66.3648 25.5063H60.6144L68.6432 2.48438H73.7824L81.3952 25.5063H75.68ZM69.1936 17.4125H73.0144L71.152 11.8281L69.1936 17.4125Z" fill="#0473AA"/>
<path d="M90.1344 19.5469C89.856 19.5875 89.5776 19.6219 89.2992 19.6406C89.0208 19.6625 88.7328 19.6812 88.432 19.7031V25.5063H83.0048V2.57812H88.432C89.7824 2.6 91.0432 2.84063 92.2208 3.3C93.3984 3.75938 94.432 4.375 95.3216 5.14687C96.2112 5.91875 96.9056 6.81875 97.408 7.84063C97.9104 8.8625 98.1632 9.95938 98.1632 11.1281C98.1632 12.3594 97.8944 13.5031 97.36 14.5594C96.8256 15.6156 96.0768 16.5281 95.1104 17.3L100.314 25.5063H93.9232L90.1344 19.5469ZM88.432 14.3719C89.0112 14.35 89.5616 14.2531 90.0864 14.075C90.6112 13.8969 91.072 13.6625 91.4688 13.3687C91.8656 13.075 92.176 12.7375 92.4 12.35C92.624 11.9625 92.736 11.55 92.736 11.1125C92.736 10.675 92.624 10.2656 92.4 9.89062C92.176 9.51562 91.8656 9.18125 91.4688 8.8875C91.072 8.59375 90.6112 8.35938 90.0864 8.18125C89.5616 8.00313 89.0112 7.90312 88.432 7.88437V14.3719Z" fill="#0473AA"/>
<path d="M116.73 25.4781H102.646V2.45312H108.093V20.1875H116.73V25.4781Z" fill="#0473AA"/>
<path d="M116.118 21.253C116.237 20.9999 116.125 20.7062 115.872 20.5843C115.622 20.4655 115.325 20.5687 115.21 20.8218C115.19 20.8655 115.168 20.8843 115.117 20.8843C114.845 20.8812 114.576 20.8843 114.304 20.8874C113.914 20.8905 110.659 20.7718 108.502 20.803C106.893 20.803 106.899 20.8968 106.893 20.9437C106.886 20.9968 107.242 21.0468 107.229 21.0968C109.43 21.153 114.026 21.1999 114.086 21.1999C114.422 21.1937 114.758 21.1937 115.094 21.1905C115.158 21.1905 115.187 21.2155 115.226 21.2655C115.29 21.3468 115.363 21.4374 115.453 21.4843C115.696 21.6124 116.006 21.4968 116.118 21.253ZM115.738 21.2155C115.645 21.253 115.53 21.2093 115.488 21.1155C115.443 21.0155 115.488 20.8999 115.59 20.8562C115.686 20.8155 115.795 20.8593 115.837 20.953C115.882 21.053 115.837 21.1749 115.738 21.2155Z" fill="#0593C4"/>
<path d="M116.093 22.8937C116.211 22.6405 116.099 22.3468 115.846 22.2249C115.597 22.1062 115.299 22.2093 115.184 22.4624C115.165 22.5062 115.142 22.5249 115.091 22.5249C114.819 22.5218 114.55 22.5249 114.278 22.528C113.888 22.5312 109.68 22.4124 107.523 22.4437C107.517 22.4905 107.952 22.6874 107.939 22.7374C110.141 22.7937 114.006 22.8405 114.064 22.8405C114.4 22.8343 114.736 22.8343 115.072 22.8312C115.136 22.8312 115.165 22.8562 115.203 22.9062C115.267 22.9874 115.341 23.078 115.43 23.1249C115.67 23.253 115.978 23.1374 116.093 22.8937ZM115.712 22.8562C115.619 22.8937 115.504 22.8499 115.462 22.7562C115.418 22.6562 115.462 22.5405 115.565 22.4968C115.661 22.4562 115.77 22.4999 115.811 22.5937C115.856 22.6937 115.808 22.8155 115.712 22.8562Z" fill="#0593C4"/>
<path d="M116.115 24.7281C116.234 24.475 116.122 24.1813 115.869 24.0594C115.619 23.9406 115.322 24.0438 115.206 24.2969C115.187 24.3406 115.165 24.3594 115.114 24.3594C114.842 24.3563 114.573 24.3594 114.301 24.3625C113.91 24.3656 110.656 24.2469 108.499 24.2781C108.493 24.325 108.49 24.3719 108.483 24.4188C108.477 24.4719 108.464 24.5219 108.451 24.5719C110.653 24.6281 114.026 24.675 114.083 24.675C114.419 24.6688 114.755 24.6688 115.091 24.6656C115.155 24.6656 115.184 24.6906 115.222 24.7406C115.286 24.8219 115.36 24.9125 115.45 24.9594C115.69 25.0875 116 24.9719 116.115 24.7281ZM115.734 24.6906C115.642 24.7281 115.526 24.6844 115.485 24.5906C115.44 24.4906 115.485 24.375 115.587 24.3313C115.683 24.2906 115.792 24.3344 115.834 24.4281C115.875 24.5281 115.83 24.65 115.734 24.6906Z" fill="#0593C4"/>
<path d="M112.922 25.4125L102.646 25.4781V2.45312H108.093L107.786 12.6L107.578 20.05C107.578 21.0281 107.373 21.9563 108.262 22.8281L112.922 25.4125Z" fill="#0593C4"/>
<path d="M139.984 9.47817C139.363 8.07817 138.518 6.85942 137.45 5.82505C136.381 4.79067 135.13 3.9688 133.696 3.36255C133.203 3.15317 132.698 2.98442 132.182 2.84692V8.5188C132.714 8.8063 133.197 9.1563 133.622 9.57192C134.202 10.1375 134.656 10.7938 134.989 11.5469C135.322 12.3 135.488 13.1063 135.488 13.9625C135.488 14.8188 135.322 15.625 134.989 16.3782C134.656 17.1313 134.202 17.7907 133.622 18.3532C133.043 18.9188 132.371 19.3625 131.6 19.6875C130.829 20.0125 130.003 20.175 129.126 20.175C128.25 20.175 127.424 20.0125 126.653 19.6875C125.882 19.3625 125.206 18.9188 124.63 18.3532C124.051 17.7875 123.597 17.1313 123.264 16.3782C122.931 15.625 122.765 14.8219 122.765 13.9625C122.765 13.1063 122.931 12.3 123.264 11.5469C123.597 10.7938 124.051 10.1344 124.63 9.57192C125.03 9.1813 125.475 8.8563 125.968 8.5813V2.86567C125.478 3.00005 124.995 3.16255 124.525 3.36255C123.091 3.9688 121.846 4.79067 120.787 5.82505C119.728 6.85942 118.89 8.07817 118.269 9.47817C117.648 10.8782 117.338 12.375 117.338 13.9625C117.338 15.5532 117.648 17.0469 118.269 18.4469C118.89 19.8469 119.728 21.0657 120.787 22.1C121.846 23.1344 123.091 23.9563 124.525 24.5625C125.958 25.1688 127.488 25.4719 129.11 25.4719C130.736 25.4719 132.266 25.1688 133.696 24.5625C135.13 23.9563 136.381 23.1344 137.45 22.1C138.518 21.0657 139.363 19.8469 139.984 18.4469C140.605 17.0469 140.915 15.55 140.915 13.9625C140.915 12.375 140.605 10.8782 139.984 9.47817Z" fill="#0473AA"/>
<path d="M131.21 1.09375H127.05V9.3625H131.21V1.09375Z" fill="#0473AA"/>
<path d="M149.555 25.9469C148.806 25.9469 148.061 25.8469 147.322 25.65C146.582 25.45 145.882 25.1437 145.219 24.725C144.064 23.9937 143.165 23.0469 142.522 21.8875C141.878 20.7281 141.558 19.4562 141.558 18.075H146.986C146.986 18.7031 147.123 19.1875 147.405 19.5344C147.683 19.8781 147.93 20.1156 148.144 20.2406C148.528 20.4906 148.947 20.6281 149.395 20.6469C149.846 20.6687 150.285 20.5844 150.714 20.3969C151.014 20.2719 151.254 20.1156 151.437 19.925C151.619 19.7375 151.757 19.5531 151.856 19.375C151.952 19.1969 152.01 19.025 152.032 18.8562C152.054 18.6875 152.064 18.5531 152.064 18.45C152.064 18.3469 152.054 18.2094 152.032 18.0437C152.01 17.8781 151.952 17.7 151.856 17.5094C151.76 17.3219 151.619 17.1375 151.437 16.9594C151.254 16.7812 151.014 16.6187 150.714 16.4719C150.477 16.3687 150.227 16.2719 149.958 16.1906C149.69 16.1062 149.408 16.0125 149.107 15.9094C148.573 15.7437 148.016 15.5531 147.437 15.3437C146.858 15.1344 146.282 14.8531 145.702 14.4969C144.954 14.0375 144.32 13.4625 143.808 12.7719C143.293 12.0812 142.925 11.3406 142.701 10.5437C142.477 9.74999 142.4 8.92811 142.477 8.08124C142.55 7.23436 142.794 6.42499 143.2 5.64999C143.584 4.94061 144.067 4.32186 144.646 3.79999C145.226 3.27811 145.866 2.86561 146.573 2.56249C147.28 2.25936 148.038 2.07499 148.854 2.01249C149.667 1.94999 150.493 2.02186 151.328 2.23124C152.141 2.41874 152.877 2.71874 153.536 3.12499C154.195 3.53124 154.765 4.02499 155.245 4.59999C155.725 5.17499 156.09 5.81874 156.346 6.52811C156.602 7.24061 156.73 7.98124 156.73 8.75624H151.328C151.328 8.27499 151.171 7.94061 150.861 7.75311C150.55 7.56561 150.278 7.44061 150.042 7.37811C150 7.37811 149.898 7.36249 149.738 7.33124C149.578 7.29999 149.395 7.29999 149.19 7.33124C148.986 7.36249 148.778 7.43749 148.563 7.54999C148.349 7.66561 148.179 7.84686 148.048 8.09999C147.875 8.43436 147.843 8.78436 147.952 9.14999C148.058 9.51561 148.272 9.80311 148.595 10.0125C148.896 10.1812 149.226 10.3312 149.59 10.4687C149.955 10.6062 150.339 10.7344 150.746 10.8594C151.11 10.9656 151.478 11.0781 151.853 11.2031C152.227 11.3281 152.605 11.475 152.989 11.6437C154.394 12.2719 155.494 13.1906 156.294 14.4031C157.091 15.6156 157.491 16.9656 157.491 18.45C157.491 19.9125 157.091 21.2531 156.294 22.4656C155.494 23.6781 154.394 24.6 152.989 25.225C152.435 25.475 151.869 25.6594 151.293 25.775C150.71 25.8875 150.134 25.9469 149.555 25.9469Z" fill="#0473AA"/>
<path d="M50.6432 43.1281L50.0128 41.3344H45.0016L44.352 43.1281H40.4672L45.8912 28.3281H49.3632L54.5056 43.1281H50.6432ZM46.2592 37.925H48.8416L47.584 34.3344L46.2592 37.925Z" fill="#0473AA"/>
<path d="M65.0751 43.128H55.5935V28.3062H59.2607V39.7187H65.0751V43.128Z" fill="#0473AA"/>
<path d="M76.5536 31.7344H70V33.9719H75.3152V37.3813H70V39.7219H76.5536V43.1313H66.3328V28.35L76.5536 28.3313V31.7344Z" fill="#0473AA"/>
<path d="M91.3088 28.2063L86.6208 35.425L91.7216 43.1281H87.4048L84.496 38.7313L81.632 43.1281H77.3568L82.3264 35.4437L77.552 28.2031H81.8496L84.4736 32.1563L87.0112 28.2031H91.3088V28.2063Z" fill="#0473AA"/>
<path d="M101.939 43.1281L101.309 41.3344H96.2976L95.648 43.1281H91.7632L97.1872 28.3281H100.659L105.802 43.1281H101.939ZM97.5584 37.925H100.141L98.88 34.3375L97.5584 37.925Z" fill="#0473AA"/>
<path d="M116.067 28.3281H119.734V43.1281H115.763L110.557 34.4969V43.1281H106.89V28.3687H110.883L116.07 36.9781V28.3281H116.067Z" fill="#0473AA"/>
<path d="M124.918 28.2656C125.974 28.3187 126.97 28.5562 127.901 28.9718C128.835 29.3875 129.645 29.9343 130.33 30.6062C131.018 31.2781 131.558 32.0593 131.958 32.9468C132.355 33.8343 132.554 34.7812 132.554 35.7906C132.554 36.7843 132.358 37.7156 131.968 38.5843C131.578 39.45 131.037 40.2156 130.352 40.8718C129.664 41.5312 128.858 42.0593 127.933 42.4562C127.008 42.8531 126 43.0781 124.915 43.1312H121.248V28.2468H124.915V28.2656H124.918ZM124.918 39.7C125.482 39.6468 126.006 39.5093 126.493 39.2875C126.976 39.0656 127.395 38.7843 127.75 38.4406C128.106 38.0968 128.384 37.6968 128.586 37.2406C128.787 36.7843 128.89 36.3 128.89 35.7875C128.89 35.2625 128.787 34.7625 128.586 34.2843C128.384 33.8062 128.099 33.3843 127.741 33.0125C127.379 32.6437 126.96 32.3406 126.483 32.1062C126.006 31.8718 125.485 31.725 124.922 31.6718V39.7H124.918Z" fill="#0473AA"/>
<path d="M138.221 39.2968C138.032 39.325 137.843 39.3437 137.658 39.3562C137.469 39.3687 137.274 39.3843 137.072 39.3968V43.1281H133.405V28.3875H137.072C137.984 28.4 138.835 28.5562 139.632 28.85C140.426 29.1468 141.126 29.5406 141.725 30.0375C142.326 30.5343 142.797 31.1125 143.136 31.7687C143.475 32.4281 143.645 33.1312 143.645 33.8843C143.645 34.6781 143.462 35.4125 143.104 36.0906C142.742 36.7687 142.237 37.3562 141.584 37.8531L145.098 43.1281H140.781L138.221 39.2968ZM137.072 35.9687C137.462 35.9562 137.834 35.8906 138.189 35.7781C138.544 35.6656 138.854 35.5125 139.123 35.325C139.392 35.1375 139.6 34.9187 139.754 34.6687C139.904 34.4187 139.981 34.1531 139.981 33.8718C139.981 33.5906 139.904 33.3281 139.754 33.0843C139.603 32.8437 139.392 32.6281 139.123 32.4406C138.854 32.2531 138.544 32.1 138.189 31.9875C137.834 31.8718 137.462 31.8093 137.072 31.7968V35.9687Z" fill="#0473AA"/>
<path d="M156.685 31.7344H150.131V33.9719H155.446V37.3813H150.131V39.7219H156.685V43.1313H146.464V28.35L156.685 28.3313V31.7344Z" fill="#0473AA"/>
<path d="M25.2287 0.7813C25.2287 0.7813 23.3439 0.2438 20.5951 3.0813C17.8463 5.9188 11.0975 12.8157 11.0975 12.8157C11.0975 12.8157 9.28629 15.3094 11.4335 17.4219C13.5807 19.5344 19.4815 23.4219 19.4815 23.4219L38.5791 7.30005C38.5791 7.30005 41.8111 4.7813 39.0175 4.05943C35.9775 3.27505 31.2863 2.15005 31.2863 2.15005" fill="#0473AA"/>
<path d="M25.8175 3.25638C25.4783 2.36263 24.4671 1.90325 23.5391 2.21888C22.6303 2.52825 22.1631 3.49388 22.5055 4.38138C22.5663 4.54075 22.5663 4.6345 22.4351 4.7595C21.7663 5.40325 21.1039 6.05638 20.4511 6.71888C19.5007 7.66888 11.2191 15.1751 5.9967 20.4158C6.1023 20.5408 6.2079 20.6689 6.3103 20.797C6.4223 20.9408 6.5215 21.0876 6.6143 21.2408C12.1599 16.0939 20.5535 8.1345 20.6943 7.99388C21.5007 7.172 22.3295 6.372 23.1423 5.55325C23.2991 5.39388 23.4367 5.39075 23.6511 5.41888C24.0159 5.46575 24.4191 5.5095 24.7583 5.4095C25.6735 5.14075 26.1471 4.11888 25.8175 3.25638ZM24.7871 4.072C24.6559 4.38763 24.2623 4.55013 23.9295 4.42513C23.5679 4.29075 23.3887 3.90013 23.5295 3.55325C23.6607 3.22825 24.0447 3.06575 24.3775 3.197C24.7359 3.3345 24.9247 3.74075 24.7871 4.072Z" fill="#0593C4"/>
<path d="M30.5183 5.21878C30.1791 4.32503 29.1679 3.86566 28.2399 4.18128C27.3311 4.49066 26.8639 5.45628 27.2063 6.34378C27.2671 6.50316 27.2671 6.59691 27.1359 6.72191C26.4671 7.36566 25.8047 8.01878 25.1519 8.68128C24.2015 9.63128 15.9199 17.1375 10.6975 22.3782C10.8031 22.5032 10.9087 22.6313 11.0111 22.7594C11.1231 22.9032 11.2223 23.05 11.3151 23.2032C16.8607 18.0563 25.2575 10.0969 25.3983 9.95316C26.2047 9.13128 27.0335 8.33128 27.8463 7.51253C28.0031 7.35316 28.1407 7.35003 28.3551 7.37816C28.7199 7.42503 29.1231 7.46878 29.4623 7.36878C30.3743 7.10316 30.8447 6.08128 30.5183 5.21878ZM29.4847 6.03753C29.3535 6.35316 28.9599 6.51566 28.6271 6.39066C28.2655 6.25628 28.0863 5.86566 28.2271 5.51878C28.3583 5.19378 28.7423 5.03128 29.0751 5.16253C29.4335 5.30003 29.6223 5.70628 29.4847 6.03753Z" fill="#0593C4"/>
<path d="M34.8384 7.0657C34.4992 6.17195 33.488 5.71258 32.56 6.0282C31.6512 6.33758 31.184 7.3032 31.5264 8.1907C31.5872 8.35008 31.5872 8.44383 31.456 8.56883C30.7872 9.21258 30.1248 9.8657 29.472 10.5282C28.5216 11.4782 20.24 18.9845 15.0176 24.2251C15.1232 24.3501 15.2288 24.4782 15.3312 24.6063C15.4432 24.7501 15.5424 24.897 15.6352 25.0501C21.1808 19.9032 29.5776 11.9438 29.7184 11.8001C30.5248 10.9782 31.3536 10.1782 32.1664 9.35946C32.3232 9.20008 32.4608 9.19695 32.6752 9.22508C33.04 9.27195 33.4432 9.31571 33.7824 9.21571C34.6912 8.95008 35.1648 7.9282 34.8384 7.0657ZM33.8048 7.88445C33.6736 8.20008 33.28 8.36258 32.9472 8.23758C32.5856 8.1032 32.4064 7.71258 32.5472 7.3657C32.6784 7.0407 33.0624 6.8782 33.3952 7.00945C33.7536 7.14695 33.9424 7.5532 33.8048 7.88445Z" fill="#0593C4"/>
<path opacity="0.25" d="M35.2512 41.9563C33.9296 40.4844 32.5536 39.0969 31.0912 37.7594C29.6608 36.45 28.2624 35.1407 26.9184 33.7469C25.9712 32.7657 25.0176 31.775 23.8144 31.4969C22.8672 31.2782 22.2112 30.7969 21.808 30.1907C21.8016 30.1938 21.7952 30.1969 21.7888 30.2C20.2912 31.1094 18.2944 30.6282 17.2576 29.3157C16.7712 28.7 16.5376 28.0126 16.5024 27.2376C16.4576 26.2751 16.96 25.5282 17.5328 24.8125C18.112 24.0875 18.6688 23.8719 19.4848 23.425C19.5264 23.4032 19.9104 23.0219 19.952 23C16.0832 19.3032 13.0688 16.4219 12.56 15.9438C10.9696 14.4469 11.728 12.175 11.728 12.175L9.6864 14.4438C9.7792 16.5032 10.5376 18.1938 10.752 20.2501C11.008 22.6969 10.176 24.8407 8.8512 26.8782C8.288 27.7469 7.5264 28.2188 6.7168 28.3969L21.9712 45.6313C22.3744 46.0876 23.0048 46.2907 23.6096 46.1563L36.4544 43.3126C36.064 42.8532 35.6512 42.4032 35.2512 41.9563Z" fill="#1C1E1E"/>
<path d="M11.2799 12.6313C11.2799 12.6313 10.6207 14.9907 12.2111 16.4876C13.5199 17.7157 31.4303 34.8501 37.7599 40.9032C38.7071 41.8095 38.2527 43.3813 36.9567 43.6688L23.2639 46.7001C22.6591 46.8345 22.0319 46.6313 21.6255 46.1751L3.54874 25.7501C3.51674 25.7157 3.48474 25.6813 3.45274 25.6501C3.13274 25.347 1.14874 23.2438 4.14074 20.1095" fill="#0593C4"/>
</svg>
