<svg width="180" height="180" viewBox="0 0 180 180" fill="none" xmlns="http://www.w3.org/2000/svg">
<path d="M104.737 0.158782C104.737 0.158782 97.5348 -1.94447 87.0308 9.15876C76.5267 20.262 50.7374 47.2497 50.7374 47.2497C50.7374 47.2497 43.8162 57.0078 52.0214 65.2741C60.2265 73.5404 82.7753 88.7523 82.7753 88.7523L155.753 25.6669C155.753 25.6669 168.104 15.8109 157.429 12.9862C145.812 9.91691 127.885 5.51474 127.885 5.51474" fill="#0473AA"/>
<path d="M106.987 9.84338C105.691 6.34611 101.827 4.54856 98.2809 5.78361C94.8081 6.9942 93.0228 10.7727 94.3312 14.2455C94.5636 14.8692 94.5636 15.236 94.0622 15.7252C91.5065 18.2442 88.9753 20.7999 86.4807 23.3923C82.8489 27.1096 51.2023 56.4818 31.2458 76.9886C31.6493 77.4777 32.0529 77.9791 32.4442 78.4804C32.8721 79.0429 33.2512 79.6176 33.6058 80.2168C54.7974 60.0769 86.872 28.9316 87.41 28.3814C90.4916 25.1653 93.6587 22.0349 96.7646 18.8311C97.3638 18.2075 97.8896 18.1953 98.7089 18.3053C100.103 18.4887 101.644 18.6599 102.94 18.2686C106.437 17.217 108.247 13.2184 106.987 9.84338ZM103.05 13.0349C102.549 14.27 101.045 14.9059 99.7728 14.4167C98.391 13.8909 97.7062 12.3624 98.2442 11.0051C98.7456 9.73333 100.213 9.09746 101.485 9.61104C102.854 10.1491 103.576 11.7388 103.05 13.0349Z" fill="#0593C4"/>
<path d="M124.951 17.5228C123.654 14.0256 119.79 12.228 116.244 13.4631C112.771 14.6736 110.986 18.4522 112.294 21.925C112.527 22.5486 112.527 22.9155 112.025 23.4046C109.47 25.9236 106.938 28.4793 104.444 31.0717C100.812 34.7891 69.1655 64.1613 49.209 84.668C49.6125 85.1572 50.016 85.6585 50.4074 86.1599C50.8353 86.7224 51.2144 87.2971 51.569 87.8963C72.7606 67.7564 104.847 36.6111 105.385 36.0486C108.467 32.8326 111.634 29.7021 114.74 26.4983C115.339 25.8747 115.865 25.8625 116.684 25.9725C118.078 26.156 119.619 26.3271 120.915 25.9358C124.4 24.8964 126.198 20.8978 124.951 17.5228ZM121.001 20.7266C120.5 21.9617 118.995 22.5975 117.724 22.1084C116.342 21.5826 115.657 20.0541 116.195 18.6967C116.697 17.425 118.164 16.7891 119.436 17.3027C120.805 17.8408 121.527 19.4304 121.001 20.7266Z" fill="#0593C4"/>
<path d="M141.459 24.7499C140.163 21.2526 136.298 19.4551 132.752 20.6901C129.279 21.9007 127.494 25.6792 128.803 29.152C129.035 29.7757 129.035 30.1425 128.534 30.6317C125.978 33.1507 123.447 35.7064 120.952 38.2987C117.32 42.0161 85.6736 71.3883 65.7171 91.8951C66.1206 92.3842 66.5242 92.8855 66.9155 93.3869C67.3435 93.9494 67.7225 94.5241 68.0772 95.1233C89.2687 74.9834 121.356 43.8381 121.894 43.2756C124.975 40.0596 128.142 36.9292 131.248 33.7254C131.847 33.1018 132.373 33.0895 133.192 33.1996C134.586 33.383 136.127 33.5542 137.423 33.1629C140.896 32.1235 142.706 28.1249 141.459 24.7499ZM137.509 27.9537C137.008 29.1887 135.504 29.8246 134.232 29.3355C132.85 28.8096 132.165 27.2811 132.703 25.9238C133.205 24.652 134.672 24.0162 135.944 24.5298C137.313 25.0678 138.035 26.6575 137.509 27.9537Z" fill="#0593C4"/>
<path opacity="0.25" d="M143.036 161.278C137.986 155.518 132.728 150.089 127.14 144.855C121.674 139.732 116.33 134.608 111.194 129.154C107.574 125.315 103.93 121.438 99.3326 120.35C95.7131 119.494 93.2063 117.611 91.6655 115.239C91.6411 115.251 91.6166 115.263 91.5921 115.275C85.8693 118.834 78.2389 116.951 74.277 111.815C72.4183 109.406 71.5256 106.716 71.3911 103.683C71.2199 99.9167 73.1398 96.9941 75.3286 94.1939C77.5419 91.3569 79.6696 90.5132 82.7878 88.7645C82.9468 88.6789 84.4142 87.1871 84.5731 87.1015C69.7892 72.6355 58.2702 61.3611 56.3259 59.4902C50.2485 53.6328 53.1466 44.7429 53.1466 44.7429L45.345 53.6206C45.6996 61.679 48.5977 68.2945 49.417 76.3407C50.3952 85.9154 47.2159 94.3039 42.1534 102.277C40.0013 105.676 37.0909 107.523 33.9972 108.22L92.2892 175.658C93.8299 177.444 96.2389 178.238 98.55 177.713L147.634 166.585C146.142 164.787 144.565 163.027 143.036 161.278Z" fill="#1C1E1E"/>
<path d="M51.4345 46.5281C51.4345 46.5281 48.9155 55.7604 54.9929 61.6177C59.9943 66.4234 128.436 133.471 152.623 157.157C156.243 160.703 154.506 166.854 149.554 167.979L97.2292 179.84C94.9181 180.366 92.5213 179.571 90.9684 177.786L21.8911 97.8622C21.7688 97.7277 21.6465 97.5932 21.5242 97.4709C20.3014 96.2847 12.7199 88.0551 24.1533 75.7902" fill="#0593C4"/>
</svg>
